<svg width="714" height="338" viewBox="0 0 714 338" fill="none" xmlns="http://www.w3.org/2000/svg">
<g clip-path="url(#clip0_3450_181)">
<path d="M64.8551 142.821C73.0754 143.128 81.0782 147.73 87.0094 154.623L87.5767 155.297L87.7979 155.58C89.9925 158.539 89.5035 162.731 86.6277 165.099C83.7517 167.467 79.5431 167.142 77.0606 164.421L76.8261 164.15L76.4359 163.686C72.3812 158.977 67.7598 156.866 64.3349 156.738C61.4914 156.631 58.6677 157.795 56.7396 162.127L56.5558 162.557C53.7094 169.467 55.3655 174.516 57.4778 180.947C58.4606 183.939 59.8306 188.023 59.7575 192.282C59.6773 196.945 57.939 201.311 54.1349 205.285L53.7604 205.668C49.6395 209.801 44.2536 211.209 39.2344 211.086C34.262 210.965 29.2391 209.367 24.8426 206.971C16.5556 202.455 8.136 193.646 7.87793 182.581L7.87206 182.053L7.88123 181.695C8.06851 178.016 11.1111 175.091 14.8365 175.092C18.562 175.093 21.6032 178.019 21.7887 181.698L21.7978 182.056L21.8082 182.446C22.0223 186.501 25.5558 191.501 31.5061 194.743C34.3897 196.315 37.2568 197.108 39.5728 197.165C41.8423 197.22 43.1445 196.591 43.8986 195.835L44.2003 195.521C45.6267 193.988 45.8181 192.943 45.8336 192.044C45.8596 190.53 45.3626 188.69 44.2468 185.293C42.162 178.945 38.6944 169.354 43.6794 157.252L43.8711 156.798C47.9576 147.324 55.9116 142.487 64.8551 142.821ZM95.2946 168.414C102.764 163.899 112.77 160.725 121.711 166.044L122.141 166.306C126.519 169.059 129.075 173.027 129.9 177.548C130.691 181.877 129.804 186.161 128.556 189.702C126.222 196.323 121.825 202.548 118.926 206.179L118.368 206.87C113.929 212.288 108.306 218.351 101.571 221.798C94.4958 225.419 86.2914 226.068 77.8819 221.157L77.0673 220.664C71.8638 217.406 69.3691 211.639 69.1289 205.857C68.8856 200.002 70.8528 193.66 75.0093 187.842L75.5092 187.15C80.7368 180.004 87.7759 172.959 95.2946 168.414ZM191.351 176.869C193.547 175.301 196.462 175.14 198.824 176.476C201.262 177.855 202.637 180.561 202.312 183.343C200.585 198.139 198.161 207.152 193.742 224.496C192.793 228.222 189.002 230.473 185.276 229.524C181.549 228.574 179.298 224.784 180.247 221.058C182.577 211.915 184.28 205.332 185.607 199.17C179.535 204.177 173.569 209.448 165.448 217.087L162.572 219.805C160.509 221.764 157.462 222.27 154.876 221.085C152.29 219.899 150.685 217.26 150.823 214.418C151.094 208.839 151.321 204.151 151.536 199.706C146.224 206.99 140.484 214.139 132.238 223.461C129.69 226.342 125.289 226.611 122.408 224.063C119.528 221.515 119.258 217.114 121.806 214.234C136.473 197.653 142.745 188.451 153.877 171.641L154.043 171.401C155.811 168.959 158.965 167.923 161.851 168.869C164.83 169.845 166.789 172.693 166.637 175.824C166.265 183.491 165.975 189.474 165.685 195.458C165.643 196.323 165.6 197.189 165.558 198.06C174.477 190.062 181.382 184.559 191.141 177.025L191.351 176.869ZM114.592 178.012C112.425 176.723 108.559 176.669 102.499 180.332C96.9121 183.709 91.1688 189.334 86.7621 195.355L86.3395 195.938C83.7268 199.595 82.9459 202.94 83.0431 205.279C83.1433 207.691 84.0775 208.622 84.4579 208.86L84.8387 209.093C88.7516 211.404 91.9021 211.103 95.2262 209.401C99.2263 207.354 103.321 203.261 107.595 198.044L108.083 197.441C110.575 194.311 113.849 189.536 115.422 185.072C116.257 182.702 116.383 181.05 116.2 180.049C116.087 179.428 115.847 178.82 114.81 178.148L114.592 178.012ZM214.839 232.082C212.995 235.457 208.764 236.697 205.389 234.853C202.015 233.009 200.774 228.779 202.618 225.405L214.839 232.082ZM239.602 176.739C242.372 177.527 244.371 179.94 244.631 182.808C245.279 189.973 245.762 195.059 246.526 199.941C251.871 195.973 255.799 192.629 260.959 187.85L261.17 187.663C263.378 185.777 266.539 185.454 269.09 186.881C271.724 188.354 273.109 191.356 272.521 194.316C269.324 210.388 267.688 219.518 266.325 233.586L266.056 236.469L266.015 236.826C265.499 240.473 262.206 243.113 258.496 242.779C254.785 242.444 252.018 239.257 252.163 235.577L252.186 235.218L252.468 232.205C253.245 224.19 254.113 217.686 255.265 210.793C252.525 212.838 249.472 215.012 245.797 217.548C243.915 218.846 241.515 219.138 239.376 218.328C237.238 217.518 235.634 215.711 235.084 213.492C234.063 209.375 233.343 205.767 232.775 202.148C226.88 210.794 221.837 219.275 214.839 232.082L202.618 225.405C213.616 205.276 220.107 195.238 232.13 179.251L232.297 179.039C234.047 176.888 236.918 175.975 239.602 176.739ZM326.039 181.152C329.885 181.121 333.028 184.213 333.059 188.059C333.09 191.904 329.999 195.047 326.153 195.079C316.974 195.154 311.164 195.106 302.998 194.916C301.837 198.016 301.219 200.161 300.066 203.954C304.21 204.274 307.841 204.058 317.243 204.159L317.601 204.172C321.278 204.398 324.17 207.471 324.131 211.196C324.089 215.042 320.938 218.126 317.093 218.085L314.696 218.066C305.553 218.02 301.838 218.294 295.27 217.445C293.637 221.283 292.278 224.339 290.934 227.217C299.626 227.236 306.68 227.295 316.568 227.477L316.925 227.492C320.6 227.746 323.47 230.842 323.402 234.567C323.331 238.411 320.157 241.472 316.312 241.401L311.442 241.318C300.563 241.147 292.698 241.133 279.783 241.133C277.366 241.133 275.122 239.88 273.854 237.822C272.586 235.764 272.476 233.196 273.564 231.037C277.577 223.069 279.812 218.409 284.416 207.322C287.956 196.364 288.178 194.115 291.886 185.17L291.994 184.923C293.155 182.401 295.711 180.801 298.503 180.875C309.347 181.161 315.332 181.24 326.039 181.152ZM368.757 175.117C373.43 175.404 379.131 176.509 383.699 180.014C388.724 183.87 391.342 189.816 390.92 197.352L390.887 197.842C390.06 208.055 381.535 213.412 375.976 215.899C375.752 216 375.529 216.097 375.306 216.192C375.543 216.501 375.785 216.819 376.029 217.149C379.045 221.229 382.637 227.014 388.213 237.182C390.062 240.553 388.828 244.785 385.456 246.635C382.084 248.484 377.852 247.25 376.003 243.878C370.515 233.872 367.281 228.742 364.831 225.429C362.396 222.135 360.778 220.65 357.714 217.333C355.96 215.433 355.404 212.718 356.268 210.281C357.105 207.921 359.141 206.198 361.594 205.756L361.828 205.717L361.825 205.718L361.815 205.72C361.816 205.719 361.82 205.719 361.825 205.718C361.841 205.716 361.874 205.711 361.925 205.702C362.026 205.686 362.194 205.656 362.419 205.614C362.87 205.529 363.544 205.391 364.365 205.188C366.032 204.777 368.185 204.13 370.288 203.189C374.884 201.132 376.775 198.877 376.998 196.777L377.016 196.574C377.216 193.001 376.117 191.75 375.22 191.062C373.866 190.023 371.437 189.234 367.902 189.017C364.51 188.808 360.928 189.174 358.08 189.636C357.719 189.694 357.373 189.753 357.045 189.812C350.97 207.4 348.369 218.244 346.467 237.426C346.087 241.253 342.677 244.048 338.85 243.669C335.023 243.289 332.229 239.879 332.608 236.052C334.771 214.24 337.903 202.158 345.193 181.516L345.348 181.118C346.178 179.159 347.864 177.678 349.932 177.116L351.758 183.835C349.978 177.286 349.935 177.12 349.936 177.115C349.937 177.115 349.94 177.114 349.942 177.113C349.946 177.112 349.95 177.111 349.955 177.11C349.964 177.107 349.976 177.104 349.989 177.101C350.016 177.094 350.052 177.084 350.095 177.073C350.181 177.051 350.298 177.02 350.445 176.983C350.739 176.91 351.152 176.81 351.666 176.694C352.691 176.464 354.133 176.167 355.852 175.888C359.238 175.339 363.942 174.821 368.757 175.117Z" fill="black"/>
<path d="M470.16 164.302C473.846 163.203 477.724 165.3 478.823 168.985C479.921 172.671 477.825 176.549 474.139 177.648C460.64 181.674 454.569 182.876 442.883 185.847C442.479 188.992 442.298 191.975 442.162 195.927C446.702 194.639 450.857 193.271 456.776 191.218C460.409 189.958 464.376 191.881 465.636 195.514C466.896 199.148 464.973 203.115 461.34 204.376C453.469 207.106 448.447 208.717 441.696 210.486C441.27 220.197 440.56 227.499 438.052 236.635C437.033 240.343 433.201 242.524 429.493 241.506C425.785 240.488 423.604 236.656 424.622 232.948L424.849 232.108C427.126 223.501 427.563 216.757 427.98 204.822L428.187 197.121C428.394 190.251 428.686 185.462 429.862 179.001C430.346 176.338 432.331 174.197 434.949 173.512C450.553 169.428 455.28 168.74 470.16 164.302ZM522.625 146.027C526.266 144.789 530.221 146.737 531.459 150.378C532.697 154.018 530.749 157.973 527.108 159.211C516.5 162.819 509.469 165.604 500.846 168.912C500.586 172.413 500.464 175.405 500.442 179.944C505.671 178.645 510.555 177.336 518.082 175.115L518.428 175.022C522.009 174.16 525.676 176.251 526.731 179.824C527.818 183.512 525.711 187.385 522.023 188.473L517.917 189.669C510.928 191.68 506.143 192.902 500.42 194.288C500.307 200.048 500.042 204.874 499.454 210.452C506.134 208.203 511.802 205.25 522.607 200.5L528.212 213.248C513.804 219.583 506.928 223.648 492.682 226.671C490.456 227.144 488.138 226.499 486.476 224.943C484.815 223.387 484.019 221.117 484.345 218.864C486.112 206.64 486.494 200.225 486.56 188.783C486.416 175.661 486.579 171.896 487.332 163.358C487.567 160.698 489.302 158.406 491.8 157.46C502.166 153.529 510.081 150.292 522.625 146.027ZM522.607 200.5C526.127 198.952 530.236 200.551 531.783 204.072C533.331 207.592 531.732 211.701 528.212 213.248L522.607 200.5ZM553.998 135.914C561.922 133.409 570.995 135.186 577.915 140.225L578.579 140.723L578.856 140.949C581.651 143.349 582.101 147.546 579.82 150.492C577.539 153.437 573.364 154.051 570.341 151.946L570.051 151.733L569.7 151.47C566.034 148.804 561.516 148.143 558.196 149.193C555.328 150.1 552.584 152.482 552.342 158.319L552.331 158.696C552.312 160.529 552.729 161.613 553.134 162.276C553.588 163.018 554.307 163.689 555.408 164.262C557.816 165.513 561.201 165.832 563.579 165.557L564.65 165.445C570.037 164.937 575.954 165.282 581.092 167.885C587.039 170.899 590.916 176.411 592.085 184.027L592.163 184.571C592.906 190.176 591.76 195.402 588.562 199.58C585.34 203.79 580.63 206.162 575.734 207.182C566.388 209.129 554.91 206.553 544.763 200.211L543.785 199.586L543.491 199.382C540.515 197.21 539.733 193.063 541.774 189.946C543.814 186.829 547.928 185.886 551.108 187.745L551.413 187.935L552.173 188.42C560.021 193.32 567.867 194.596 572.895 193.549C575.418 193.023 576.808 192.025 577.503 191.116C578.081 190.361 578.662 189.049 578.387 186.638L578.32 186.14C577.752 182.445 576.291 181.064 574.797 180.307C572.96 179.376 570.054 178.929 566.007 179.305L565.182 179.391C560.939 179.883 554.556 179.514 548.985 176.618C546.097 175.117 543.275 172.849 541.252 169.538C539.336 166.402 538.367 162.706 538.406 158.574L538.427 157.743C538.9 146.347 545.26 138.676 553.998 135.914ZM615.013 108.643C617.91 106.113 622.309 106.411 624.839 109.308C627.368 112.205 627.07 116.603 624.173 119.132C619.865 122.894 616.594 125.845 613.039 128.673C613.295 129.006 613.525 129.366 613.721 129.752L613.876 130.077L615.266 133.225C618.423 140.453 620.957 146.931 622.881 154.347C624.943 162.297 626.249 171.104 627.045 182.916L627.197 185.318L627.21 185.677C627.243 189.36 624.381 192.462 620.662 192.684C616.944 192.906 613.732 190.167 613.326 186.506L613.296 186.148L613.151 183.852C612.392 172.595 611.18 164.702 609.401 157.843C607.57 150.787 605.079 144.592 601.554 136.648C600.023 137.586 598.361 138.569 596.535 139.612L596.219 139.783C592.932 141.446 588.883 140.255 587.035 137.02C585.128 133.681 586.288 129.428 589.627 127.52L590.759 126.869C602.191 120.248 605.798 116.689 615.013 108.643Z" fill="black"/>
<path d="M62.6759 241.353C64.6448 238.8 68.1289 237.924 71.0852 239.276C74.1367 240.673 75.7581 244.047 74.9417 247.302C71.7802 259.907 71.0638 268.582 70.5254 277.715C79.6274 269.068 87.9449 262.059 99.9448 252.35C102.367 250.39 105.796 250.279 108.341 252.076C110.886 253.873 111.928 257.142 110.891 260.08C101.827 285.774 98.8427 297.447 95.7341 314.121L95.1098 317.527L95.0365 317.879C94.1979 321.466 90.6835 323.803 87.0177 323.14C83.3519 322.477 80.8789 319.056 81.3503 315.402L81.4051 315.048L82.0582 311.492C84.1669 300.197 86.2448 291.034 89.9757 278.813C82.5972 285.288 75.8785 291.717 67.234 300.597C65.1645 302.723 61.9754 303.304 59.2891 302.044C56.6027 300.785 55.0095 297.962 55.32 295.011C56.1112 287.49 56.3128 280.588 56.8521 273.171C43.0685 291.539 31.5302 304.865 14.6279 322.901L14.3766 323.156C11.7249 325.713 7.50423 325.768 4.78576 323.221C1.97969 320.591 1.83658 316.184 4.46617 313.378L6.57801 311.119C28.11 288.026 40.7084 272.605 62.49 241.605L62.6759 241.353ZM103.273 320.411C106.927 307.101 108.889 295.009 118.256 276.228L118.424 275.911C120.233 272.702 124.261 271.442 127.595 273.105C131.036 274.821 132.435 279.002 130.718 282.444L129.933 284.037C122.038 300.292 120.494 310.288 116.702 324.097C115.684 327.806 111.853 329.986 108.145 328.968C104.436 327.95 102.256 324.119 103.273 320.411ZM196.875 258.531C199.462 255.908 203.68 255.747 206.462 258.225C209.333 260.783 209.587 265.184 207.028 268.056L206.379 268.792C192.87 284.233 187.993 298.662 179.099 319.894C177.911 322.73 175.004 324.451 171.947 324.128C168.984 323.816 166.561 321.657 165.894 318.775L165.835 318.495C163.044 303.701 161.97 291.312 161.441 278.34C150.959 294.172 145.425 305.917 141.574 323.917L141.333 325.065L141.251 325.414C140.323 328.979 136.751 331.226 133.103 330.471C129.455 329.716 127.069 326.235 127.632 322.594L127.695 322.241L127.966 320.956C133.716 294.136 143.214 279.353 162.197 252.898L162.365 252.674C164.14 250.398 167.147 249.445 169.922 250.308C172.786 251.199 174.758 253.824 174.816 256.822C175.062 269.521 175.257 280.181 176.15 291.016C181.209 279.924 187.109 269.481 196.63 258.793L196.875 258.531ZM208.947 283.281C211.209 280.171 215.565 279.484 218.675 281.747C221.784 284.009 222.471 288.364 220.209 291.474C212.094 302.629 209.351 308.626 205.65 319.969L205.53 320.307C204.211 323.746 200.411 325.584 196.87 324.429C193.214 323.236 191.217 319.304 192.41 315.649L193.174 313.346C196.965 302.115 200.462 294.945 208.947 283.281ZM234.714 284.027C243.939 265.743 266.43 254.641 286.493 262.5L287.462 262.895L287.789 263.044C291.103 264.652 292.609 268.594 291.154 272.024C289.7 275.454 285.819 277.112 282.359 275.847L282.025 275.716L281.43 275.474C269.087 270.656 253.679 277.359 247.166 290.262L246.857 290.892C243.61 297.728 243.203 303.989 244.639 308.167C245.883 311.786 248.741 314.689 254.928 315.209L255.35 315.24C259.673 315.503 262.573 314.083 264.894 311.668C266.345 310.158 267.644 308.161 268.784 305.727C267.482 305.619 266.036 305.567 264.191 305.512C260.347 305.398 257.323 302.19 257.437 298.346C257.551 294.502 260.76 291.478 264.604 291.592C270.326 291.762 273.812 291.955 280.098 293.925C283.674 295.046 285.722 298.797 284.73 302.412C282.862 309.215 279.892 316.16 274.936 321.317C269.874 326.585 263.054 329.637 254.585 329.145L253.759 329.087C242.422 328.132 234.619 321.856 231.47 312.693C228.513 304.09 229.979 293.965 234.277 284.916L234.714 284.027ZM325.981 263.34C330.325 264.533 333.573 267.176 335.517 270.804C337.323 274.173 337.75 277.903 337.677 281.152C337.542 287.182 335.606 293.731 333.862 298.685L333.516 299.654C331.507 305.217 329.102 311.707 326.014 316.802C323.16 321.512 318.296 327.385 310.592 327.512L310.224 327.513C304.804 327.473 300.168 325.467 297.028 321.487C294.135 317.821 293.164 313.293 292.959 309.307C292.549 301.356 295.024 292.264 297.625 285.801L298.064 284.736C300.32 279.397 303.502 273.823 307.52 269.651C311.721 265.289 318.193 261.202 325.981 263.34ZM357.206 259.299C360.875 259.946 363.362 263.356 362.907 267.011L362.853 267.366L362.507 269.308C359.58 285.509 356.739 296.114 351.961 309.971C358.848 309.481 364.722 308.615 373.208 306.891L375.98 320.539C362.823 323.211 355.211 323.987 342.128 324.368C339.821 324.435 337.63 323.355 336.279 321.483C334.928 319.611 334.593 317.191 335.384 315.023C342.192 296.353 345.4 285.675 348.809 266.799L349.139 264.947L349.21 264.596C350.033 261.005 353.537 258.652 357.206 259.299ZM127.486 254.818C129.239 251.396 133.435 250.042 136.858 251.795C140.281 253.548 141.634 257.744 139.881 261.167L139.105 262.683L138.934 262.997C137.091 266.187 133.049 267.404 129.733 265.706C126.311 263.953 124.957 259.757 126.71 256.334L127.486 254.818ZM322.294 276.77C321.713 276.611 320.242 276.517 317.551 279.311C315.108 281.848 312.752 285.764 310.907 290.122L310.545 290.998C308.302 296.572 306.604 303.503 306.866 308.591C306.997 311.125 307.574 312.371 307.961 312.862C308.102 313.04 308.479 313.574 310.326 313.587L310.392 313.581C310.686 313.531 311.968 313.11 314.105 309.585C316.357 305.868 318.332 300.698 320.419 294.922L320.746 294.005C322.362 289.396 323.671 284.594 323.755 280.84C323.799 278.873 323.483 277.831 323.243 277.383C323.142 277.195 323.041 276.975 322.294 276.77ZM373.208 306.891C376.976 306.126 380.652 308.561 381.417 312.329C382.183 316.098 379.748 319.774 375.98 320.539L373.208 306.891ZM223.95 261.119C225.836 257.768 230.081 256.579 233.433 258.465C236.784 260.35 237.972 264.596 236.087 267.947L234.38 270.983L234.196 271.291C232.229 274.406 228.143 275.464 224.896 273.638C221.545 271.752 220.356 267.507 222.242 264.155L223.95 261.119ZM443.656 258.201C447.308 257.719 450.736 260.181 451.41 263.845C452.106 267.627 449.604 271.258 445.822 271.954L440.001 273.031C429.012 275.069 421.237 276.475 409.547 277.521C409.525 280.211 409.5 282.738 409.401 285.317C418.379 284.68 424.565 283.765 435.048 282.445L435.406 282.409C439.079 282.135 442.361 284.788 442.827 288.484C443.307 292.3 440.603 295.782 436.787 296.262L427.912 297.398C421.293 298.239 415.661 298.889 407.96 299.369C407.105 303.664 405.837 307.392 404.32 312.987L403.881 314.639L403.781 314.983C402.671 318.496 398.988 320.558 395.383 319.616C391.779 318.674 389.575 315.073 390.325 311.466L390.408 311.117L390.921 309.181C393.227 300.612 394.27 298.415 394.833 293.262L394.947 292.109C394.951 292.059 394.956 292.008 394.962 291.958C395.751 284.83 395.525 280.111 395.696 270.953C395.764 267.348 398.573 264.391 402.17 264.138C419.008 262.955 426.784 261.297 443.302 258.258L443.656 258.201ZM528.226 248.264C526.462 259.046 525.939 264.538 525.014 274.586C524.153 284.33 523.713 289.895 523.381 297.636L523.244 301.104L523.221 301.463C522.901 305.132 519.755 307.946 516.032 307.81C512.309 307.675 509.376 304.641 509.323 300.958L509.326 300.599L509.469 297.006C509.681 292.092 509.936 288.019 510.301 283.338C505.221 284.603 500.404 285.542 494.23 286.474C493.163 292.454 492.091 297.445 490.272 305.303L490.182 305.65C489.17 309.192 485.547 311.357 481.918 310.517C478.171 309.65 475.837 305.909 476.704 302.163L477.497 298.71C478.981 292.185 479.889 287.758 480.86 282.111L481.355 279.17C481.361 279.134 481.367 279.097 481.374 279.061C483.274 268.557 484.17 264.32 485.522 254.07L485.8 251.937L485.854 251.582C486.506 247.956 489.895 245.44 493.59 245.912C497.286 246.385 499.932 249.673 499.65 253.346L499.614 253.703L499.326 255.919C498.43 262.701 497.712 267.024 496.826 271.948C502.099 271.031 506.44 270.026 511.587 268.594C512.302 261.07 512.943 255.424 514.482 246.016L528.226 248.264ZM566.783 226.277C568.925 226.707 570.753 228.122 571.7 230.109L573.669 234.222C578.134 243.508 581.693 250.74 584.434 258.293C587.649 267.152 589.74 276.396 591.373 290.25L591.407 290.607C591.653 294.282 588.974 297.544 585.274 297.98C581.455 298.431 577.994 295.699 577.544 291.88L577.249 289.477C575.99 279.587 574.485 272.64 572.502 266.449C567.94 266.649 564.431 267.184 560.984 268.191C557.399 269.238 553.635 270.867 548.616 273.488C547.263 280.632 546.122 288.255 545.081 298.033L544.829 300.46L544.784 300.815C544.228 304.457 540.907 307.061 537.201 306.686C533.494 306.311 530.761 303.094 530.946 299.415L530.974 299.057L531.237 296.528C533.976 270.843 537.462 258.977 543.104 235.189C543.517 233.45 544.583 231.935 546.081 230.96L546.766 230.52C550.172 228.369 553.289 226.913 556.61 226.233C560.154 225.508 563.344 225.796 566.35 226.204L566.783 226.277ZM625.024 213.25C630.907 213.579 636.75 216.201 640.421 222.535C647.107 234.075 642.197 244.633 637.246 250.977C636.303 252.185 635.319 253.3 634.348 254.313C639.385 257.534 643.751 261.183 649.34 266.891L650.178 267.754L650.421 268.018C652.843 270.793 652.688 275.011 650.009 277.599C647.33 280.188 643.109 280.198 640.419 277.681L640.164 277.43L638.711 275.946C631.635 268.809 627.172 265.822 619.042 261.65C616.82 260.51 615.379 258.267 615.265 255.773C615.154 253.356 616.306 251.061 618.295 249.704L618.588 249.511C618.693 249.441 618.865 249.324 619.093 249.162C619.55 248.838 620.221 248.342 621.011 247.696C622.619 246.383 624.59 244.558 626.267 242.409C629.703 238.006 630.881 233.85 628.371 229.519C627.444 227.918 626.283 227.268 624.247 227.155C621.798 227.018 618.508 227.776 614.763 229.308C611.134 230.791 607.663 232.756 605.045 234.398C604.915 234.479 604.789 234.56 604.664 234.64C608.942 252.606 610.797 265.682 612.889 286.259C613.278 290.085 610.492 293.501 606.666 293.89C602.84 294.279 599.424 291.493 599.035 287.667C596.877 266.447 595.026 253.768 590.452 235.111L590.001 233.287C589.325 230.576 590.334 227.724 592.565 226.042L596.757 231.602C592.722 226.25 592.573 226.049 592.569 226.04C592.569 226.039 592.57 226.038 592.571 226.037C592.574 226.035 592.578 226.032 592.582 226.029C592.589 226.024 592.598 226.017 592.608 226.009C592.63 225.993 592.659 225.972 592.693 225.947C592.763 225.895 592.86 225.823 592.983 225.734C593.227 225.556 593.575 225.307 594.012 225.001C594.886 224.391 596.129 223.551 597.645 222.6C600.647 220.717 604.861 218.311 609.492 216.417C614.007 214.571 619.553 212.944 625.024 213.25ZM560.858 239.718C560.311 239.731 559.848 239.786 559.403 239.877C558.583 240.045 557.531 240.399 555.975 241.247C554.622 246.903 553.416 251.836 552.323 256.441C553.915 255.826 555.49 255.288 557.078 254.823C560.386 253.857 563.64 253.245 567.117 252.882C565.354 249.026 563.302 244.809 560.858 239.718ZM522.478 240.269C526.273 240.89 528.847 244.469 528.226 248.264L514.482 246.016C515.103 242.221 518.683 239.648 522.478 240.269ZM665.252 202.534C673.028 201.572 683.977 201.895 693.156 208.762L693.7 209.178C704.989 217.993 707.641 231.946 704.285 247.096L704.147 247.691C701.148 260.097 691.477 267.279 683.734 271.182C679.703 273.214 675.868 274.533 673.054 275.345C671.638 275.754 670.458 276.041 669.611 276.23C669.187 276.325 668.845 276.395 668.596 276.444C668.473 276.468 668.372 276.487 668.296 276.501C668.258 276.508 668.226 276.514 668.201 276.519C668.188 276.521 668.177 276.523 668.167 276.524C668.163 276.525 668.158 276.526 668.154 276.527C668.153 276.527 668.15 276.527 668.149 276.528L666.961 269.666L668.144 276.528C666.183 276.866 664.172 276.349 662.618 275.108C661.063 273.867 660.112 272.02 660.007 270.034C658.874 248.55 655.457 233.885 647.46 215.25C646.727 213.542 646.707 211.613 647.404 209.891C648.101 208.169 649.457 206.797 651.17 206.079L653.859 212.503C651.229 206.217 651.174 206.081 651.175 206.078C651.176 206.077 651.179 206.076 651.181 206.075C651.184 206.074 651.188 206.073 651.192 206.071C651.2 206.068 651.21 206.063 651.221 206.059C651.242 206.05 651.269 206.039 651.301 206.026C651.364 206 651.448 205.967 651.552 205.926C651.759 205.845 652.045 205.735 652.401 205.605C653.114 205.345 654.116 205.001 655.352 204.63C657.811 203.892 661.265 203.026 665.252 202.534ZM684.813 219.913C679.82 216.178 673.205 215.583 666.961 216.355C665.631 216.519 664.37 216.742 663.212 216.986C668.824 231.488 671.861 244.531 673.299 260.582C674.625 260.072 676.038 259.466 677.465 258.746C683.581 255.663 688.846 251.166 690.536 244.715L690.689 244.084C693.31 232.251 690.809 224.753 685.35 220.331L684.813 219.913ZM656.537 218.93C656.532 218.932 656.529 218.933 656.528 218.934C656.529 218.934 656.531 218.933 656.533 218.932C656.535 218.932 656.537 218.931 656.539 218.93C656.54 218.929 656.542 218.928 656.543 218.928L656.537 218.93Z" fill="black"/>
<path d="M169.273 70.1151C171.252 66.8182 175.529 65.7502 178.826 67.7291C187.166 72.7355 193.591 75.3513 211.143 79.7648C212.959 80.2216 214.514 81.3911 215.458 83.0085C216.402 84.626 216.655 86.5556 216.159 88.3615C213.803 96.9445 209.049 108.57 203.101 118.917C200.117 124.108 196.742 129.137 193.097 133.362C189.629 137.383 185.591 141.058 181.068 143.251L180.629 143.458C162.729 151.694 142.859 139.985 140.813 119.389L140.728 118.402L140.712 118.043C140.639 114.361 143.467 111.228 147.183 110.965C150.899 110.702 154.14 113.407 154.586 117.063L154.621 117.42L154.667 117.982C155.802 129.673 166.137 134.796 174.808 130.807L175.213 130.61C177.271 129.556 179.772 127.489 182.552 124.266C185.453 120.902 188.335 116.66 191.027 111.976C194.942 105.166 198.261 97.7588 200.564 91.3958C187.229 87.7628 180.214 84.8037 171.659 79.6689C168.362 77.6897 167.293 73.4123 169.273 70.1151ZM252.417 92.8402C253.74 89.2295 257.74 87.3747 261.35 88.6971C264.962 90.0196 266.817 94.0195 265.495 97.6305C261.069 109.713 253.747 128.835 250.078 138.319L248.748 141.745C246.676 147.061 243.518 152.094 238.784 155.464C233.995 158.874 228.196 160.144 221.818 159.026L221.198 158.91C213.262 157.335 209.035 151.734 207.304 146.254C205.69 141.142 206.001 135.614 207.246 131.84C208.928 126.743 218.382 101.875 223.67 88.1836L223.808 87.8527C225.307 84.4879 229.199 82.8544 232.674 84.1965C236.261 85.5822 238.047 89.6139 236.661 93.2013L234.489 98.8432C229.099 112.886 221.821 132.111 220.471 136.203C220.104 137.317 219.886 139.851 220.584 142.062C220.902 143.066 221.332 143.759 221.784 144.212C222.185 144.614 222.796 145.029 223.91 145.25L224.491 145.354C227.33 145.797 229.23 145.171 230.707 144.12C232.492 142.849 234.295 140.478 235.773 136.687L237.096 133.277C240.748 123.837 248.034 104.807 252.417 92.8402ZM307.352 91.6388C310.953 92.5934 313.144 96.2016 312.382 99.8058L312.298 100.154L311.281 103.95C306.274 122.428 302.352 133.692 295.381 152.495C294.287 155.446 291.349 157.297 288.215 157.009C285.081 156.722 282.53 154.367 281.992 151.266L277.376 124.683C273.789 134.981 270.63 144.505 266.399 157.125L266.276 157.462C264.93 160.891 261.116 162.698 257.584 161.514C253.938 160.292 251.972 156.345 253.195 152.698L258.168 137.854C262.801 124.067 266.76 112.55 273.209 95.159L273.317 94.8857C274.487 92.0947 277.339 90.3671 280.375 90.6459C283.509 90.9338 286.06 93.2885 286.599 96.3892L291.172 122.732C293.454 115.789 295.528 108.84 297.848 100.275L298.837 96.5854L298.937 96.2414C300.06 92.733 303.751 90.6844 307.352 91.6388ZM318.278 153.273C316.965 156.887 312.97 158.753 309.355 157.44C305.741 156.127 303.875 152.133 305.188 148.518L318.278 153.273ZM325.986 106.419C329.672 107.514 331.772 111.392 330.676 115.078C324.206 136.842 325.523 133.325 318.278 153.273L305.188 148.518C312.289 128.968 310.878 132.804 317.327 111.109C318.423 107.423 322.299 105.323 325.986 106.419ZM323.239 89.5698L323.556 88.4133C324.575 84.7053 328.406 82.5244 332.114 83.5423C335.822 84.5603 338.004 88.3921 336.986 92.1003L336.669 93.2568C335.651 96.9652 331.818 99.1457 328.11 98.1276C324.402 97.1094 322.221 93.2781 323.239 89.5698ZM276.647 25.5116C292.501 6.31706 318.905 -0.92077 341.184 10.1277C344.63 11.8363 346.038 16.014 344.329 19.4592C342.621 22.9044 338.443 24.3123 334.997 22.6039C320.219 15.275 302.125 18.9976 289.84 31.6382C289.917 31.65 289.995 31.6613 290.072 31.6736C296.44 32.6805 304.646 35.3938 309.812 43.2429L310.098 43.6891C316.014 53.0872 314.328 63.7873 307.882 70.8175C301.431 77.8525 290.792 80.7293 279.719 76.6447L279.192 76.4451C269.5 72.6803 263.341 66.1158 262.39 57.1809C261.525 49.0413 265.259 40.8241 270.326 33.7776C271.626 31.9672 274.373 28.361 275.9 26.4348L276.647 25.5116ZM298.178 50.8991C296.149 47.8159 292.608 46.1732 287.897 45.4284C285.605 45.0658 283.296 44.9608 281.144 44.9274C280.693 44.9204 280.181 44.9172 279.643 44.9143C276.892 49.4812 275.967 53.1475 276.239 55.7088C276.484 58.0147 277.874 60.9939 284.234 63.4643L284.818 63.6803C290.8 65.7849 295.277 63.9589 297.618 61.4059C299.963 58.8478 300.728 55.0895 298.412 51.269L298.178 50.8991ZM349.511 71.3597C348.398 75.0406 344.512 77.1225 340.831 76.01C337.15 74.8974 335.068 71.0114 336.18 67.3303L349.511 71.3597ZM418.322 1.90745C420.414 2.56617 422.116 4.14194 422.907 6.24377C423.545 7.94106 423.378 9.41974 423.274 10.0611C423.063 11.356 422.544 12.3867 422.422 12.6355C422.342 12.7975 422.265 12.9429 422.216 13.0366C418.58 21.1301 415.843 28.1194 413.72 34.6818C416.326 34.0849 419.072 33.4866 421.995 32.9242C425.772 32.1979 429.422 34.6704 430.148 38.4467C430.875 42.223 428.402 45.8733 424.626 46.5998L422.291 47.0636C417.784 47.9877 413.761 48.9694 409.668 49.9446C407.941 58.2229 406.885 66.7012 405.874 76.9102L405.394 81.8997L405.352 82.2557C404.822 85.9012 401.519 88.5297 397.81 88.1814C394.101 87.8329 391.346 84.6355 391.504 80.9553L391.529 80.5976L392.026 75.4436C392.841 67.2341 393.699 59.9919 394.908 53.0177C393.175 53.2947 391.387 53.5461 389.524 53.7595L389.167 53.7911C385.491 54.0244 382.238 51.3355 381.814 47.6345C381.376 43.8139 384.118 40.3611 387.939 39.9233L389.024 39.7938C392.215 39.3949 395.192 38.874 398.136 38.2719C399.641 32.6702 401.518 26.9195 403.931 20.653C391.92 24.7597 383.78 25.7922 371.871 27.7852C368.078 28.42 364.489 25.8599 363.854 22.0671C363.219 18.2743 365.779 14.6846 369.572 14.0497C385.484 11.3867 393.241 10.6577 412.528 2.35934C413.02 2.14776 413.695 1.8927 414.483 1.73165C415.172 1.59095 416.629 1.37467 418.322 1.90745ZM348.62 34.3857C352.332 34.7094 355.108 37.8879 354.974 41.5694L354.952 41.9269L354.763 44.0311C354.613 45.6546 354.454 47.1841 354.288 48.6511C356.221 48.5315 358.333 48.3655 360.69 48.1433C364.519 47.7824 367.915 50.5938 368.276 54.4225C368.637 58.2509 365.826 61.6466 361.998 62.0076C358.134 62.3719 354.833 62.6009 351.874 62.7169C351.238 65.3738 350.47 68.185 349.511 71.3597L336.18 67.3303C336.722 65.5376 337.194 63.8833 337.613 62.3157C335.295 62.0897 332.916 61.7943 330.288 61.4441C326.476 60.9362 323.798 57.4342 324.305 53.6222C324.813 49.8103 328.315 47.1318 332.127 47.6397L333.897 47.8725C336.173 48.1654 338.238 48.4029 340.275 48.5752C340.501 46.7516 340.705 44.8179 340.902 42.6865L341.078 40.7175L341.118 40.3609C341.624 36.712 344.909 34.0623 348.62 34.3857Z" fill="black"/>
<path d="M378.774 94.0295C387.988 94.9038 394.661 100.326 397.003 107.872C399.252 115.118 397.146 123.235 391.377 129.045L390.806 129.599C386.879 133.299 380.21 140.155 373.943 146.712L389.6 145.797C393.439 145.573 396.733 148.503 396.958 152.342C397.182 156.181 394.252 159.475 390.413 159.7L357.228 161.641C354.386 161.807 351.73 160.227 350.519 157.65C349.309 155.074 349.789 152.02 351.731 149.939C358.491 142.696 374.015 126.286 381.257 119.464L381.495 119.231C383.895 116.82 384.315 113.974 383.702 112C383.182 110.325 381.603 108.268 377.43 107.89L377.017 107.859C374.19 107.684 372.199 108.864 370.499 111.038C368.753 113.273 367.692 116.189 367.28 118.239L367.206 118.637L367.138 118.989C366.342 122.586 362.855 124.964 359.181 124.344C355.508 123.724 352.995 120.333 353.423 116.674L353.474 116.319L353.607 115.595C354.342 111.881 356.14 106.796 359.526 102.463C363.302 97.6324 369.374 93.4344 377.875 93.9589L378.774 94.0295ZM425.293 92.4287C429.851 92.4505 433.661 94.2379 436.486 97.1937C439.187 100.02 440.695 103.593 441.598 106.817C443.392 113.22 443.445 120.713 443.38 125.563L443.355 126.782C443.184 132.911 442.311 139.56 439.997 145.032C437.519 150.892 432.641 156.79 424.283 157.086L423.883 157.096C421.472 157.129 418.705 156.84 415.981 155.619C413.15 154.351 410.824 152.283 409.056 149.492C405.985 144.644 404.627 137.643 404.298 128.433L404.246 126.562C404.071 117.995 405.298 110.044 408.327 103.925C411.445 97.6274 416.943 92.5907 424.85 92.4315L425.293 92.4287ZM426.418 106.815C426.172 106.557 425.958 106.387 425.394 106.359L425.131 106.355C423.946 106.379 422.39 106.908 420.809 110.103C419.138 113.477 418.02 118.948 418.17 126.278L418.22 128.039C418.535 136.535 419.785 140.404 420.82 142.039C421.243 142.706 421.534 142.847 421.676 142.911C421.925 143.022 422.487 143.188 423.69 143.171L423.853 143.165C424.69 143.116 425.862 142.703 427.171 139.608C428.525 136.404 429.281 131.731 429.433 126.443L429.455 125.378C429.52 120.485 429.38 114.83 428.188 110.574C427.598 108.469 426.915 107.335 426.418 106.815ZM447.972 100.701C449.431 87.2487 462.684 76.5101 475.81 82.9792L476.416 83.2874C479.412 84.862 481.921 86.9398 483.751 89.5919C485.716 92.4382 486.648 95.582 486.861 98.7233C487.267 104.713 485.076 110.87 482.497 116.217C479.918 121.562 476.472 127.032 473.206 132.041C477.012 130.905 480.76 129.586 484.928 127.791C488.459 126.269 492.556 127.899 494.077 131.431C495.599 134.963 493.969 139.059 490.437 140.581C479.335 145.364 470.619 147.227 459.561 149.872C456.869 150.516 454.051 149.504 452.383 147.294C450.716 145.083 450.517 142.096 451.875 139.683L452.373 138.81C454.916 134.415 458.229 129.509 461.263 124.865C464.611 119.74 467.731 114.772 469.954 110.165C472.251 105.404 473.122 101.947 472.967 99.6656C472.9 98.6716 472.644 98.0154 472.291 97.5032C471.948 97.0067 471.289 96.3236 469.935 95.6128L469.654 95.4699C468.369 94.8369 466.786 94.8961 465.179 96.0044C463.608 97.0877 462.141 99.1656 461.821 102.159L461.794 102.452L461.756 102.809C461.277 106.461 458.012 109.135 454.298 108.839C450.585 108.542 447.786 105.384 447.893 101.702L447.912 101.343L447.972 100.701ZM522.556 61.1338C525.812 59.4117 529.883 60.5286 531.789 63.7295C533.695 66.9304 532.737 71.0412 529.671 73.0837L529.369 73.275C524.226 76.3373 520.449 78.1755 516.193 79.6198C513.678 80.4735 511.013 81.1778 507.915 81.9377C508.382 85.9261 508.578 89.7094 508.321 93.764C509.606 93.4516 510.953 93.1713 512.337 92.9484C516.504 92.2771 521.571 92.0326 526.376 93.4923C531.486 95.0443 536.106 98.4938 538.663 104.519L538.967 105.272C541.944 113.061 539.948 121.07 533.625 126.688C527.54 132.093 518.117 134.783 506.814 134.695L506.456 134.682C502.778 134.467 499.877 131.402 499.906 127.677C499.936 123.832 503.078 120.739 506.923 120.769L507.795 120.769C516.68 120.698 521.914 118.462 524.376 116.276C526.343 114.528 526.833 112.678 526.023 110.418L525.843 109.96C525.081 108.163 523.961 107.313 522.328 106.817C520.392 106.229 517.713 106.188 514.551 106.697C511.476 107.193 508.473 108.12 506.178 108.962C505.048 109.376 504.128 109.755 503.505 110.024C503.194 110.158 502.96 110.264 502.812 110.332C502.738 110.366 502.685 110.39 502.656 110.404C502.648 110.408 502.641 110.41 502.637 110.412C502.635 110.413 502.632 110.414 502.63 110.415L502.632 110.414L502.631 110.416C500.202 111.583 497.316 111.244 495.224 109.544C493.129 107.842 492.207 105.082 492.857 102.462C495.055 93.6119 494.828 87.9918 493.529 79.5L493.255 77.7619C492.675 74.1717 494.956 70.7401 498.491 69.8846C504.906 68.3318 508.449 67.5413 511.718 66.4321C514.765 65.3979 517.632 64.0548 522.243 61.3093L522.556 61.1338ZM502.638 110.413L502.635 110.414C502.634 110.415 502.633 110.414 502.632 110.414C502.633 110.414 502.635 110.413 502.637 110.412C502.637 110.413 502.638 110.413 502.638 110.413Z" fill="black"/>
</g>
<defs>
<clipPath id="clip0_3450_181">
<rect width="713" height="337" fill="white" transform="translate(0.987305 0.09375)"/>
</clipPath>
</defs>
</svg>
